#!OML:ASF F:\VICON\USERDATA\INSTALL\rory3\rory3.ASF
:FULLY-SPECIFIED
:DEGREES
1130
root 5.02341 18.9858 4.24351 85.3528 -70.6179 -72.1799
lowerback 16.7438 2.70059 -7.33802
upperback 7.09399 1.53855 -6.60295
thorax -1.80437 0.465312 -3.13146
lowerneck -10.6322 12.0697 -2.45238
upperneck 15.9719 16.6688 -0.643089
head 6.45688 7.7171 1.57103
rclavicle 6.36111e-015 -3.49861e-014
rhumerus -12.7289 36.3121 -88.986
rradius 124.259
rwrist -12.0307
rhand -55.4053 -4.97984
rfingers 7.12502
rthumb -27.7678 -32.9489
lclavicle 6.36111e-015 -3.49861e-014
lhumerus 25.7833 -10.1925 70.5458
lradius 19.7479
lwrist -15.2577
lhand -17.2645 12.2937
lfingers 7.12502
lthumb 8.98009 42.0826
rfemur -28.1311 16.3695 13.2916
rtibia 23.4862
rfoot 14.4885 -27.4994
rtoes 13.6496
lfemur -30.3975 8.68718 -4.38925
ltibia 35.6351
lfoot -15.3875 11.7419
ltoes -3.1173
1131
root 5.0096 18.9933 4.25222 84.0773 -70.5641 -71.021
lowerback 16.8395 2.50788 -7.29343
upperback 7.1005 1.2882 -6.61545
thorax -1.84725 0.345383 -3.12626
lowerneck -10.4293 12.1831 -2.30313
upperneck 15.9547 16.7894 -0.675979
head 6.43148 7.78237 1.5358
rclavicle -2.22639e-014 8.5875e-014
rhumerus -13.9096 35.4918 -89.1999
rradius 125.087
rwrist -12.2241
rhand -54.9823 -5.47129
rfingers 7.12502
rthumb -27.3632 -33.5049
lclavicle -2.22639e-014 8.5875e-014
lhumerus 25.4177 -12.6219 69.6176
lradius 20.623
lwrist -13.748
lhand -17.1755 12.742
lfingers 7.12502
lthumb 9.06604 42.5272
rfemur -28.137 15.7871 13.6509
rtibia 23.8817
rfoot 14.8211 -28.0671
rtoes 13.5248
lfemur -30.1668 8.16315 -4.36764
ltibia 35.408
lfoot -15.3008 11.7684
ltoes -3.32823
1132
root 4.9948 19.0003 4.26265 82.7174 -70.5628 -69.6447
lowerback 16.8222 2.25705 -7.27545
upperback 7.08382 0.973736 -6.64204
thorax -1.85611 0.194922 -3.10563
lowerneck -10.3329 12.3014 -2.28089
upperneck 16 16.9177 -0.541564
head 6.41761 7.8549 1.57696
rclavicle 9.54166e-015 2.22639e-014
rhumerus -14.8902 34.6936 -89.471
rradius 125.732
rwrist -12.5308
rhand -54.9371 -6.20034
rfingers 7.12502
rthumb -27.32 -34.2407
lclavicle 9.54166e-015 2.22639e-014
lhumerus 25.0014 -14.458 69.0635
lradius 21.5058
lwrist -12.85
lhand -16.6718 12.9133
lfingers 7.12502
lthumb 9.55205 42.6767
rfemur -28.2731 15.267 13.8064
rtibia 24.3624
rfoot 15.1932 -28.3299
rtoes 12.7615
lfemur -30.0987 7.61761 -4.46615
ltibia 35.1825
lfoot -15.199 11.8352
ltoes -3.45437
1133
root 4.97842 19.0081 4.27146 81.3917 -70.6875 -68.3374
lowerback 16.8118 2.08462 -7.38779
upperback 7.09145 0.738855 -6.6547
thorax -1.84354 0.0789701 -3.01243
lowerneck -10.2479 12.3818 -2.31583
upperneck 16.0808 17.0199 -0.497234
head 6.42104 7.90181 1.59969
rclavicle -3.49861e-014 -3.18055e-014
rhumerus -15.7956 33.7816 -89.7372
rradius 126.224
rwrist -12.7105
rhand -55.1062 -6.47209
rfingers 7.12502
rthumb -27.4817 -34.4869
lclavicle -3.49861e-014 -3.18055e-014
lhumerus 24.6428 -16.2897 68.6275
lradius 22.4078
lwrist -12.1309
lhand -16.0999 12.8929
lfingers 7.12502
lthumb 10.1038 42.6303
rfemur -28.3567 14.8532 13.8044
rtibia 24.8896
rfoot 15.2565 -28.6815
rtoes 12.1485
lfemur -29.9521 7.23645 -4.72047
ltibia 34.9452
lfoot -15.2075 11.7287
ltoes -3.17281
1134
root 4.96511 19.0093 4.28161 80.0321 -70.6325 -67.0098
lowerback 16.8672 1.89489 -7.26988
upperback 7.10469 0.517519 -6.58907
thorax -1.85896 -0.0249597 -2.96765
lowerneck -10.1981 12.4094 -2.5224
upperneck 16.1478 17.0758 -0.42496
head 6.40908 7.91969 1.65141
rclavicle -1.27222e-014 -6.36111e-014
rhumerus -16.6426 32.6291 -89.8025
rradius 126.799
rwrist -13.1093
rhand -55.2336 -6.1004
rfingers 7.12502
rthumb -27.6036 -34.0958
lclavicle -1.27222e-014 -6.36111e-014
lhumerus 24.3862 -18.225 68.1313
lradius 23.3449
lwrist -11.3144
lhand -15.7802 12.9416
lfingers 7.12502
lthumb 10.4122 42.6638
rfemur -28.3825 14.3332 14.0369
rtibia 25.4105
rfoot 15.132 -29.1994
rtoes 12.0507
lfemur -29.8312 6.80346 -4.79003
ltibia 34.7183
lfoot -15.093 11.6989
ltoes -3.54249
1135
root 4.9498 19.0115 4.29471 78.2751 -70.6569 -65.4651
lowerback 17.1626 1.74404 -7.14181
upperback 7.17149 0.311561 -6.58131
thorax -1.94277 -0.123772 -2.99825
lowerneck -10.2109 12.3975 -2.64441
upperneck 16.2264 17.068 -0.340478
head 6.41803 7.9123 1.69587
rclavicle -4.13472e-014 -5.725e-014
rhumerus -17.3661 31.2405 -89.6761
rradius 127.522
rwrist -13.8928
rhand -55.137 -6.02768
rfingers 7.12502
rthumb -27.5112 -34.0378
lclavicle -4.13472e-014 -5.725e-014
lhumerus 24.2276 -20.4717 67.4017
lradius 24.5054
lwrist -10.0644
lhand -15.536 13.3244
lfingers 7.12502
lthumb 10.6478 43.0346
rfemur -28.117 13.8066 14.1686
rtibia 25.8965
rfoot 14.4815 -30.0244
rtoes 13.2861
lfemur -29.5053 6.11623 -4.95124
ltibia 34.4905
lfoot -15.0341 11.7852
ltoes -3.88085
